<?xml version="1.0" encoding="UTF-8" standalone="no"?>
<!-- Created with Inkscape (http://www.inkscape.org/) -->

<svg
   xmlns:dc="http://purl.org/dc/elements/1.1/"
   xmlns:cc="http://creativecommons.org/ns#"
   xmlns:rdf="http://www.w3.org/1999/02/22-rdf-syntax-ns#"
   xmlns:svg="http://www.w3.org/2000/svg"
   xmlns="http://www.w3.org/2000/svg"
   xmlns:sodipodi="http://sodipodi.sourceforge.net/DTD/sodipodi-0.dtd"
   xmlns:inkscape="http://www.inkscape.org/namespaces/inkscape"
   width="50px"
   height="50px"
   viewBox="0 0 50 50"
   version="1.1"
   id="SVGRoot"
   inkscape:version="0.92.3 (2405546, 2018-03-11)"
   sodipodi:docname="cdn.svg">
  <sodipodi:namedview
     id="base"
     pagecolor="#ffffff"
     bordercolor="#666666"
     borderopacity="1.0"
     inkscape:pageopacity="0.0"
     inkscape:pageshadow="2"
     inkscape:zoom="5.12"
     inkscape:cx="25"
     inkscape:cy="25"
     inkscape:document-units="px"
     inkscape:current-layer="layer1"
     showgrid="false"
     inkscape:window-width="1920"
     inkscape:window-height="1027"
     inkscape:window-x="-8"
     inkscape:window-y="22"
     inkscape:window-maximized="1"
     inkscape:grid-bbox="true" />
  <defs
     id="defs815" />
  <metadata
     id="metadata818">
    <rdf:RDF>
      <cc:Work
         rdf:about="">
        <dc:format>image/svg+xml</dc:format>
        <dc:type
           rdf:resource="http://purl.org/dc/dcmitype/StillImage" />
        <dc:title></dc:title>
      </cc:Work>
    </rdf:RDF>
  </metadata>
  <g
     id="layer1"
     inkscape:groupmode="layer"
     inkscape:label="Ebene 1">
    <circle
       style="opacity:1;fill:none;fill-opacity:1;fill-rule:nonzero;stroke:#ffffff;stroke-width:2.25838256;stroke-linecap:round;stroke-linejoin:miter;stroke-miterlimit:4;stroke-dasharray:none;stroke-dashoffset:0;stroke-opacity:1"
       id="path1374"
       cx="25"
       cy="25"
       r="23.87081" />
    <g
       aria-label="CDN"
       transform="matrix(0.42555147,0,0,0.42555147,32.875096,22.642371)"
       style="font-style:normal;font-weight:normal;font-size:40px;line-height:125%;font-family:sans-serif;letter-spacing:0px;word-spacing:0px;fill:#ffffff;fill-opacity:1;stroke:#ffffff;stroke-width:1px;stroke-linecap:butt;stroke-linejoin:miter;stroke-opacity:1"
       id="flowRoot1376">
      <path
         d="m -33.408125,15.260174 q -2.12,2.56 -5,3.92 -2.88,1.32 -6.44,1.32 -3.2,0 -5.96,-1.16 -2.72,-1.16 -4.72,-3.16 -2,-2 -3.16,-4.72 -1.16,-2.7600004 -1.16,-5.9200004 0,-3.16 1.16,-5.87999996 1.16,-2.76000004 3.16,-4.76000004 2,-2 4.72,-3.16 2.76,-1.16 5.96,-1.16 3.44,0 6.04,1.2 2.64,1.2 4.68,3.48 l -3.8,3.68 q -1.28,-1.48 -2.96,-2.36 -1.64,-0.88 -3.92,-0.88 -2,0 -3.76,0.72 -1.76,0.68 -3.08,1.96 -1.28,1.28000004 -2.04,3.12 -0.76,1.8 -0.76,4.04 0,2.24 0.76,4.08 0.76,1.8000004 2.04,3.0800004 1.32,1.28 3.08,2 1.76,0.68 3.76,0.68 2.4,0 4.24,-0.96 1.88,-1 3.32,-2.8 z"
         style="font-style:normal;font-variant:normal;font-weight:bold;font-stretch:normal;font-family:'Product Sans';-inkscape-font-specification:'Product Sans Bold';fill:#ffffff;stroke:#ffffff"
         id="path1384" />
      <path
         d="m -29.073125,-8.7798264 h 9.68 q 3.4,0 6.12,1.04 2.72,1.04 4.64,2.96 1.92,1.88 2.92,4.52000004 1.04,2.63999996 1.04,5.79999996 0,3.2 -1.04,5.8400004 -1,2.64 -2.92,4.52 -1.92,1.88 -4.64,2.92 -2.72,1.04 -6.12,1.04 h -9.68 z m 9.44,23.5200004 q 2.36,0 4.16,-0.64 1.8,-0.68 3,-1.88 1.2,-1.2 1.8,-2.8800004 0.6,-1.72 0.6,-3.8 0,-2.08 -0.6,-3.76 -0.6,-1.71999996 -1.8,-2.92 -1.2,-1.2 -3,-1.84 -1.8,-0.68 -4.16,-0.68 h -4.04 V 14.740174 Z"
         style="font-style:normal;font-variant:normal;font-weight:bold;font-stretch:normal;font-family:'Product Sans';-inkscape-font-specification:'Product Sans Bold';fill:#ffffff;stroke:#ffffff"
         id="path1386" />
      <path
         d="m -0.323125,-8.7798264 h 6.28 l 11.52,19.2000004 h 0.32 l -0.32,-5.5200004 v -13.68 h 5.36 V 19.860174 h -5.68 l -12.16,-20.28000036 h -0.32 l 0.32,5.51999996 V 19.860174 h -5.32 z"
         style="font-style:normal;font-variant:normal;font-weight:bold;font-stretch:normal;font-family:'Product Sans';-inkscape-font-specification:'Product Sans Bold';fill:#ffffff;stroke:#ffffff"
         id="path1388" />
    </g>
  </g>
</svg>
