<?xml version="1.0" encoding="UTF-8" standalone="no"?>
<svg
   xmlns:dc="http://purl.org/dc/elements/1.1/"
   xmlns:cc="http://creativecommons.org/ns#"
   xmlns:rdf="http://www.w3.org/1999/02/22-rdf-syntax-ns#"
   xmlns:svg="http://www.w3.org/2000/svg"
   xmlns="http://www.w3.org/2000/svg"
   version="1.1"
   viewBox="0 0 245 240"
   id="Layer_1">
  <metadata
     id="metadata13">
    <rdf:RDF>
      <cc:Work
         rdf:about="">
        <dc:format>image/svg+xml</dc:format>
        <dc:type
           rdf:resource="http://purl.org/dc/dcmitype/StillImage" />
        <dc:title></dc:title>
      </cc:Work>
    </rdf:RDF>
  </metadata>
  <defs
     id="defs11" />
  <style
     id="style2">.st0{fill:#FFFFFF;}</style>
  <path
     style="fill:#ffffff;stroke-width:1.19322038"
     id="path4"
     d="m 100.90271,100.78915 c -6.801354,0 -12.170846,5.9661 -12.170846,13.24475 0,7.27864 5.488814,13.24474 12.170846,13.24474 6.80136,0 12.17085,-5.9661 12.17085,-13.24474 0.11932,-7.27865 -5.36949,-13.24475 -12.17085,-13.24475 z m 43.55254,0 c -6.80135,0 -12.17084,5.9661 -12.17084,13.24475 0,7.27864 5.48881,13.24474 12.17084,13.24474 6.80136,0 12.17085,-5.9661 12.17085,-13.24474 0,-7.27865 -5.36949,-13.24475 -12.17085,-13.24475 z"
     class="st0" />
  <path
     style="fill:#ffffff;stroke-width:1.19322038"
     id="path6"
     d="M 202.44576,0.67796609 H 42.554237 c -13.48339,0 -24.461017,10.97762691 -24.461017,24.58033891 V 186.58169 c 0,13.60272 10.977627,24.58034 24.461017,24.58034 H 177.86542 l -6.32406,-22.07457 15.27322,14.19932 14.43796,13.36407 25.65424,22.67118 V 25.258305 c 0,-13.602712 -10.97763,-24.58033891 -24.46102,-24.58033891 z M 156.38746,156.51254 c 0,0 -4.2956,-5.13085 -7.87526,-9.66508 15.63119,-4.41492 21.59729,-14.19932 21.59729,-14.19932 -4.8922,3.22169 -9.54576,5.48881 -13.72203,7.04 -5.9661,2.50576 -11.69356,4.17627 -17.3017,5.13084 -11.45491,2.1478 -21.95525,1.55119 -30.9044,-0.11932 -6.80136,-1.31254 -12.64814,-3.22169 -17.540343,-5.13085 -2.744407,-1.07389 -5.727458,-2.38644 -8.710509,-4.05695 -0.357966,-0.23864 -0.715932,-0.35796 -1.073898,-0.59661 -0.238644,-0.11932 -0.357966,-0.23864 -0.477288,-0.35796 -2.147797,-1.19322 -3.341017,-2.02848 -3.341017,-2.02848 0,0 5.727458,9.54577 20.881356,14.08 -3.579661,4.53424 -7.994576,9.90373 -7.994576,9.90373 -26.37017,-0.83525 -36.393221,-18.13695 -36.393221,-18.13695 0,-38.421692 17.182373,-69.564743 17.182373,-69.564743 C 87.89661,55.924068 104.24373,56.282034 104.24373,56.282034 l 1.19322,1.431864 c -21.477967,6.204746 -31.381696,15.631187 -31.381696,15.631187 0,0 2.625085,-1.431865 7.04,-3.460339 12.767458,-5.608136 22.909826,-7.159322 27.086106,-7.517288 0.71593,-0.119322 1.31254,-0.238644 2.02847,-0.238644 7.27864,-0.954577 15.51186,-1.193221 24.10305,-0.238645 11.33559,1.312543 23.50644,4.65356 35.91593,11.454916 0,0 -9.42644,-8.949153 -29.71118,-15.153899 l 1.67051,-1.909152 c 0,0 16.34711,-0.357966 33.52949,12.528813 0,0 17.18237,31.143051 17.18237,69.564743 0,0 -10.14237,17.3017 -36.51254,18.13695 z"
     class="st0" />
</svg>
