<?xml version="1.0" encoding="UTF-8" standalone="no"?>
<!-- Created with Inkscape (http://www.inkscape.org/) -->

<svg
   xmlns:dc="http://purl.org/dc/elements/1.1/"
   xmlns:cc="http://creativecommons.org/ns#"
   xmlns:rdf="http://www.w3.org/1999/02/22-rdf-syntax-ns#"
   xmlns:svg="http://www.w3.org/2000/svg"
   xmlns="http://www.w3.org/2000/svg"
   xmlns:sodipodi="http://sodipodi.sourceforge.net/DTD/sodipodi-0.dtd"
   xmlns:inkscape="http://www.inkscape.org/namespaces/inkscape"
   width="200"
   height="99"
   viewBox="0 0 52.91668 26.193751"
   version="1.1"
   id="svg8"
   inkscape:version="0.92.3 (2405546, 2018-03-11)"
   sodipodi:docname="logo-black.svg">
  <defs
     id="defs2" />
  <sodipodi:namedview
     id="base"
     pagecolor="#ffffff"
     bordercolor="#666666"
     borderopacity="1.0"
     inkscape:pageopacity="0.0"
     inkscape:pageshadow="2"
     inkscape:zoom="11.2"
     inkscape:cx="215.71776"
     inkscape:cy="86.804305"
     inkscape:document-units="mm"
     inkscape:current-layer="layer1"
     showgrid="false"
     units="px"
     inkscape:window-width="1920"
     inkscape:window-height="1027"
     inkscape:window-x="-8"
     inkscape:window-y="22"
     inkscape:window-maximized="1" />
  <metadata
     id="metadata5">
    <rdf:RDF>
      <cc:Work
         rdf:about="">
        <dc:format>image/svg+xml</dc:format>
        <dc:type
           rdf:resource="http://purl.org/dc/dcmitype/StillImage" />
        <dc:title></dc:title>
      </cc:Work>
    </rdf:RDF>
  </metadata>
  <g
     inkscape:label="Ebene 1"
     inkscape:groupmode="layer"
     id="layer1"
     transform="translate(0,-270.80608)">
    <path
       style="fill:#000000;stroke-width:0.05290947"
       d="m 7.3178444,296.94466 c -0.1454977,-0.0226 -0.4405495,-0.0434 -0.6556605,-0.0459 -1.0700634,-0.0127 -2.8192144,-0.81933 -4.0055095,-1.84719 -1.3928805,-1.20685 -2.4365218,-3.19376 -2.57557132,-4.90341 -0.02601569,-0.3201 -0.0578636,-4.67229 -0.07072071,-9.67153 -0.02077318,-8.08265 -0.01448233,-9.09844 0.0570117,-9.16996 0.07114005,-0.0712 0.65588984,-0.0778 5.06753203,-0.0577 4.1489234,0.0188 5.0626959,0.0361 5.4368429,0.10288 1.202763,0.21447 1.851314,0.50167 2.407381,1.06609 0.203702,0.20676 0.451715,0.5146 0.551145,0.68408 0.624875,1.06506 0.974421,2.96532 0.80049,4.35168 -0.213676,1.70312 -1.116924,3.02664 -2.510669,3.67885 l -0.336769,0.1576 1.715481,2.49782 c 0.94351,1.3738 1.732565,2.50381 1.753443,2.51114 0.02091,0.007 0.569751,-3.32598 1.219703,-7.40732 0.649952,-4.08136 1.194073,-7.47422 1.209159,-7.5397 l 0.02745,-0.11904 h 3.191029 3.191041 l 0.08071,0.25132 c 0.297266,0.92555 2.00031,6.93777 2.053265,7.24859 0.03598,0.21098 0.08156,0.3836 0.101396,0.3836 0.01985,0 0.05191,-0.125 0.07128,-0.27778 0.0194,-0.15277 0.505478,-1.92061 1.080221,-3.92853 l 1.044971,-3.65075 3.21044,-0.0136 3.210439,-0.0136 0.02824,0.11945 c 0.046,0.19463 2.672374,16.68489 2.672374,16.77905 0,0.0788 -0.27422,0.0863 -3.161797,0.0863 h -3.161795 l -0.279501,-3.4259 c -0.153722,-1.88423 -0.281198,-3.66396 -0.283276,-3.95497 l -0.0039,-0.52909 -0.151324,0.74072 c -0.08324,0.40741 -0.563536,2.18119 -1.067349,3.94176 l -0.916027,3.20102 -2.299956,0.0137 -2.299962,0.0137 -0.922587,-3.26771 c -0.507423,-1.79724 -0.987273,-3.60105 -1.066329,-4.00844 l -0.143741,-0.74073 -0.0046,0.5847 c -0.0026,0.32158 -0.123846,2.07989 -0.26935,3.90733 -0.145498,1.82744 -0.264548,3.36788 -0.264548,3.42319 0,0.0982 -0.144049,0.10057 -6.241645,0.10057 H 8.5646439 l -1.1369635,-2.28835 -1.1369703,-2.28832 0.01494,2.53965 c 0.014155,2.40431 0.02097,2.56151 0.1279027,2.94991 0.131068,0.47593 0.3212118,0.82538 0.5581904,1.02581 0.2510217,0.21233 0.7593955,0.4307 1.1462952,0.4924 0.2333481,0.0372 7.4596456,0.055 22.4770846,0.0552 19.111159,3.7e-4 22.143486,0.0107 22.208755,0.076 0.06376,0.0637 0.07559,0.55581 0.07559,3.14812 v 3.07253 l -22.658486,-0.007 C 17.778818,296.9889 7.463453,296.9673 7.3179488,296.9446 Z m 0.2645474,-18.25615 c 0.2943833,-0.12942 0.5920105,-0.37096 0.7051558,-0.57226 0.061861,-0.11006 0.1404518,-0.36452 0.1746718,-0.56548 0.087176,-0.51198 -0.027654,-0.90903 -0.353374,-1.22203 -0.2923388,-0.28089 -0.4899007,-0.34085 -1.2275008,-0.37255 l -0.5952347,-0.0256 v 1.44175 1.44176 L 6.85489,278.7862 c 0.3128237,-0.0153 0.6402018,-0.0593 0.7275018,-0.0977 z m 38.1477322,9.83664 c -1.123122,-0.11319 -2.282335,-0.45124 -3.333295,-0.97207 -0.889795,-0.44097 -1.558451,-0.92055 -2.248652,-1.61283 -1.200581,-1.2042 -1.973279,-2.62404 -2.338612,-4.29728 -0.104988,-0.48083 -0.118592,-0.69513 -0.120039,-1.89146 -0.002,-1.48753 0.05537,-1.91456 0.402933,-3.01003 0.799383,-2.51944 2.895767,-4.56417 5.600651,-5.46267 0.575674,-0.19123 0.760778,-0.22723 1.428556,-0.27792 0.983353,-0.0747 2.435918,-0.0733 3.280392,0.003 0.523001,0.0473 0.776323,0.10035 1.210857,0.25351 1.151341,0.4058 2.596076,1.14205 2.599463,1.32471 0.0013,0.0582 -0.421283,1.29028 -0.938582,2.73798 -0.785077,2.19708 -0.95686,2.63217 -1.039251,2.63224 -0.05426,5e-5 -0.256664,-0.10487 -0.449731,-0.23316 -1.207565,-0.8024 -2.312925,-1.14213 -3.21325,-0.98757 -1.144853,0.19654 -2.221194,1.18798 -2.479523,2.28393 -0.389061,1.65055 0.830385,3.3243 2.596758,3.56416 0.339383,0.0461 1.082999,-0.0771 1.614597,-0.26737 0.384469,-0.13764 1.61212,-0.72624 1.709754,-0.81974 0.02765,-0.0264 0.11169,-0.0481 0.186775,-0.0481 0.13268,0 0.16211,0.0739 1.049186,2.63224 0.50197,1.44774 0.911963,2.69769 0.911092,2.77766 -0.002,0.17575 -0.220413,0.32725 -1.086217,0.75308 -1.654354,0.81366 -3.40017,1.11342 -5.343862,0.91755 z"
       id="path826"
       inkscape:connector-curvature="0" />
  </g>
</svg>
