<?xml version="1.0" encoding="UTF-8" standalone="no"?>
<svg
   xmlns:dc="http://purl.org/dc/elements/1.1/"
   xmlns:cc="http://creativecommons.org/ns#"
   xmlns:rdf="http://www.w3.org/1999/02/22-rdf-syntax-ns#"
   xmlns:svg="http://www.w3.org/2000/svg"
   xmlns="http://www.w3.org/2000/svg"
   id="svg8"
   version="1.1"
   viewBox="0 0 52.91668 26.193751"
   height="99"
   width="200">
  <defs
     id="defs2" />
  <metadata
     id="metadata5">
    <rdf:RDF>
      <cc:Work
         rdf:about="">
        <dc:format>image/svg+xml</dc:format>
        <dc:type
           rdf:resource="http://purl.org/dc/dcmitype/StillImage" />
        <dc:title></dc:title>
      </cc:Work>
    </rdf:RDF>
  </metadata>
  <g
     transform="translate(0,-270.80608)"
     id="layer1">
    <path
       id="path826"
       d="m 45.119141,270.97461 c -0.668353,0.0507 -0.857253,0.0878 -1.433594,0.2793 -2.712398,0.90099 -4.816973,2.95225 -5.619141,5.48047 -0.347908,1.09655 -0.406298,1.52936 -0.404297,3.01757 0.0014,1.19653 0.01586,1.41452 0.121094,1.89649 0.366326,1.67779 1.141788,3.103 2.345703,4.31054 0.69192,0.69401 1.363952,1.17517 2.25586,1.61719 1.053814,0.52225 2.215253,0.86108 3.341796,0.97461 l 0.0293,0.004 v -0.004 c 1.935674,0.19008 3.680124,-0.10842 5.330079,-0.91992 0.433226,-0.21308 0.705397,-0.35777 0.871093,-0.47266 0.08285,-0.0574 0.138838,-0.10714 0.175781,-0.15625 0.03694,-0.0491 0.05413,-0.0971 0.05469,-0.14648 1.18e-4,-0.0108 -0.0026,-0.0206 -0.0059,-0.0352 -0.0032,-0.0146 -0.0076,-0.0341 -0.01367,-0.0566 -0.01224,-0.0451 -0.03156,-0.10596 -0.05469,-0.18164 -0.04625,-0.15135 -0.112711,-0.3595 -0.195312,-0.61133 -0.165203,-0.50365 -0.393505,-1.17835 -0.644531,-1.90234 -0.443542,-1.27918 -0.671262,-1.93769 -0.806641,-2.27734 -0.06769,-0.16983 -0.111758,-0.25919 -0.150391,-0.31055 -0.01932,-0.0257 -0.03838,-0.0434 -0.05859,-0.0527 -0.02022,-0.009 -0.04078,-0.01 -0.05859,-0.01 -0.04009,0 -0.08105,0.006 -0.117188,0.0156 -0.03614,0.009 -0.067,0.0191 -0.08789,0.0391 -0.0072,0.007 -0.03697,0.0277 -0.08008,0.0527 -0.04311,0.025 -0.100765,0.0567 -0.167968,0.0918 -0.134407,0.0703 -0.308805,0.15622 -0.492188,0.24414 -0.366764,0.17584 -0.769604,0.35798 -0.958984,0.42578 -0.52764,0.18885 -1.275469,0.31018 -1.603516,0.26562 -1.751722,-0.23787 -2.959531,-1.8966 -2.574218,-3.53125 0.255381,-1.08344 1.326028,-2.06917 2.458984,-2.26367 0.890395,-0.15285 1.989125,0.18224 3.193359,0.98242 0.09731,0.0647 0.196713,0.12516 0.279297,0.16797 0.04129,0.0214 0.07853,0.0385 0.109375,0.0508 0.03085,0.0123 0.05407,0.0196 0.07617,0.0195 0.02194,-2e-5 0.04018,-0.0124 0.05664,-0.0312 0.01646,-0.0189 0.03225,-0.0455 0.05273,-0.084 0.04096,-0.077 0.09604,-0.20049 0.171875,-0.39258 0.15168,-0.38418 0.390645,-1.04398 0.783203,-2.14258 0.258682,-0.72393 0.493863,-1.39225 0.664063,-1.88867 0.0851,-0.2482 0.153574,-0.45305 0.201171,-0.59961 0.0238,-0.0733 0.04213,-0.13328 0.05469,-0.17578 0.0063,-0.0213 0.01037,-0.0376 0.01367,-0.0508 0.0033,-0.0132 0.0061,-0.0191 0.0059,-0.0312 -7.43e-4,-0.0401 -0.03036,-0.0713 -0.07422,-0.11133 -0.04386,-0.04 -0.10595,-0.0857 -0.183593,-0.13672 -0.155287,-0.10195 -0.37168,-0.22442 -0.625,-0.35351 -0.506641,-0.25819 -1.157246,-0.54463 -1.734375,-0.74805 -0.435768,-0.15359 -0.692792,-0.20651 -1.216797,-0.2539 -0.847153,-0.0765 -2.299816,-0.0788 -3.285156,-0.004 z m 0.0039,0.0527 c 0.981366,-0.0745 2.435548,-0.0741 3.277344,0.002 0.521997,0.0472 0.769824,0.10118 1.203125,0.2539 0.574211,0.20239 1.224107,0.48709 1.728515,0.74414 0.252205,0.12853 0.46856,0.24947 0.621094,0.34961 0.07627,0.0501 0.135484,0.096 0.175781,0.13282 0.0403,0.0368 0.05654,0.0667 0.05664,0.0723 -1.09e-4,-0.005 -9.12e-4,0.006 -0.0039,0.0176 -0.003,0.012 -0.0075,0.0299 -0.01367,0.0508 -0.01232,0.0417 -0.03097,0.0988 -0.05469,0.17188 -0.04744,0.14606 -0.116126,0.35156 -0.201172,0.59961 -0.170091,0.49609 -0.405445,1.16491 -0.664062,1.88867 -0.392519,1.09848 -0.630172,1.75797 -0.78125,2.14062 -0.07554,0.19133 -0.129018,0.31348 -0.167969,0.38672 -0.01947,0.0366 -0.03706,0.0607 -0.04883,0.0742 -0.01177,0.0135 -0.01696,0.0137 -0.01563,0.0137 -0.005,1e-5 -0.02824,-0.004 -0.05664,-0.0156 -0.0284,-0.0113 -0.06329,-0.028 -0.103515,-0.0488 -0.08045,-0.0417 -0.179638,-0.10044 -0.275391,-0.16406 -1.210896,-0.80462 -2.322167,-1.14846 -3.232422,-0.99219 -1.15675,0.19858 -2.238723,1.19623 -2.5,2.30469 -0.392809,1.66645 0.838117,3.35385 2.619141,3.5957 0.350719,0.0476 1.091397,-0.0759 1.626953,-0.26758 0.195088,-0.0698 0.597257,-0.25149 0.964844,-0.42773 0.183793,-0.0881 0.358888,-0.1754 0.49414,-0.2461 0.06763,-0.0353 0.125706,-0.0662 0.169922,-0.0918 0.04422,-0.0256 0.07265,-0.0441 0.08984,-0.0605 0.0068,-0.006 0.03289,-0.0192 0.06445,-0.0273 0.03157,-0.008 0.06852,-0.0137 0.103516,-0.0137 0.01536,0 0.02685,0.001 0.03711,0.006 0.01026,0.005 0.02115,0.0139 0.03711,0.0352 0.03192,0.0424 0.07739,0.13039 0.144531,0.29883 0.134274,0.33688 0.363106,0.99623 0.80664,2.27539 0.250944,0.72375 0.47751,1.39714 0.642579,1.90039 0.08253,0.25162 0.151201,0.46058 0.197265,0.61133 0.02303,0.0754 0.04076,0.13746 0.05273,0.18164 0.006,0.0221 0.0088,0.0395 0.01172,0.0527 0.0029,0.0132 0.0039,0.0223 0.0039,0.0215 -4.38e-4,0.0385 -0.01134,0.0751 -0.04297,0.11718 -0.03163,0.042 -0.08383,0.0889 -0.164063,0.14453 -0.160461,0.11126 -0.430703,0.256 -0.863281,0.46875 -1.650049,0.81155 -3.390637,1.10951 -5.330078,0.91407 -1.119701,-0.11285 -2.276113,-0.44934 -3.324219,-0.96875 -0.887682,-0.43993 -1.553705,-0.91687 -2.242187,-1.60742 -1.197248,-1.20086 -1.965738,-2.61647 -2.330078,-4.28516 -0.104741,-0.4797 -0.117694,-0.68863 -0.119141,-1.88477 -0.002,-1.48684 0.05317,-1.90757 0.400391,-3.00195 0.796598,-2.51066 2.886614,-4.54931 5.583984,-5.44531 0.575006,-0.19101 0.754672,-0.2267 1.421875,-0.27735 z m -10.458985,0.17774 -3.230468,0.0137 -3.230469,0.0137 -1.050781,3.66992 c -0.287394,1.00404 -0.552225,1.94799 -0.748047,2.66016 -0.09791,0.35609 -0.179003,0.65428 -0.236328,0.87305 -0.02866,0.10938 -0.05203,0.20044 -0.06836,0.26757 -0.01633,0.0671 -0.0264,0.11004 -0.0293,0.13282 -0.0096,0.0755 -0.02069,0.14459 -0.0332,0.19336 -0.0036,0.014 -0.0083,0.021 -0.01172,0.0312 -0.006,-0.0172 -0.01039,-0.0353 -0.01758,-0.0625 -0.01807,-0.0684 -0.03876,-0.16469 -0.05664,-0.26953 -0.0074,-0.0435 -0.03954,-0.16915 -0.0918,-0.36524 -0.05225,-0.19609 -0.125049,-0.46053 -0.210937,-0.77148 -0.171777,-0.62191 -0.398032,-1.43093 -0.632813,-2.25977 -0.469562,-1.65768 -0.969906,-3.39082 -1.119141,-3.85547 l -0.08594,-0.26953 h -3.210938 -3.21289 l -0.03125,0.13867 c -0.0018,0.008 -0.0048,0.0232 -0.0098,0.0527 -0.005,0.0295 -0.01073,0.0715 -0.01953,0.125 -0.0176,0.10705 -0.04257,0.26149 -0.07422,0.45703 -0.06329,0.39108 -0.154091,0.94757 -0.263672,1.63086 -0.219162,1.36658 -0.516819,3.2347 -0.841797,5.27539 -0.32497,2.04063 -0.624646,3.89581 -0.845703,5.23828 -0.110528,0.67123 -0.201095,1.21471 -0.265625,1.58984 -0.03227,0.18757 -0.05794,0.33148 -0.07617,0.42969 -0.0078,0.0422 -0.01455,0.0715 -0.01953,0.0957 -0.003,-0.004 -0.0045,-0.005 -0.0078,-0.01 -0.02523,-0.034 -0.06165,-0.0843 -0.107422,-0.14844 -0.09155,-0.1283 -0.221983,-0.31348 -0.38086,-0.54101 -0.317753,-0.45506 -0.750933,-1.08073 -1.222656,-1.76758 l -1.697265,-2.47266 0.308593,-0.14453 c 1.402215,-0.65617 2.310779,-1.98864 2.525391,-3.69922 0.174848,-1.39367 -0.175042,-3.29595 -0.804688,-4.36914 -0.10207,-0.17398 -0.349306,-0.48099 -0.554687,-0.68945 -0.560136,-0.56855 -1.216712,-0.85737 -2.421875,-1.07227 -0.380704,-0.0679 -1.292427,-0.0847 -5.4414064,-0.10351 -2.2058396,-0.0101 -3.4551353,-0.0139 -4.16210935,-0.006 -0.35348704,0.004 -0.57002614,0.0111 -0.70507813,0.0215 -0.067526,0.005 -0.11485757,0.0121 -0.1484375,0.0195 -0.03357992,0.007 -0.05508823,0.0141 -0.0703125,0.0293 -0.01993632,0.0199 -0.02405805,0.0476 -0.03124999,0.0996 -0.007192,0.052 -0.01435419,0.12991 -0.01953126,0.24609 -0.01035412,0.23237 -0.01557407,0.61718 -0.01953125,1.25391 -0.0079143,1.27346 -0.0045272,3.54851 0.0058594,7.58984 0.00642865,2.49966 0.0164753617,4.83682 0.02929688,6.58985 0.0064108,0.87651 0.01463817,1.60744 0.02148437,2.13867 0.0068462,0.53123 0.01267054,0.8609 0.01953125,0.94531 0.13978228,1.71866 1.185186,3.7099 2.5839844,4.92188 1.1908448,1.0318 2.9404243,1.84066 4.0234375,1.85351 0.2136871,0.002 0.5097735,0.0228 0.6523437,0.0449 l 0.00781,0.002 0.00195,-0.002 c 0.00905,8.6e-4 0.017805,0.001 0.037109,0.002 0.024373,7.1e-4 0.058206,0.001 0.1015625,0.002 0.086714,0.001 0.2108952,0.003 0.3710938,0.004 0.320397,0.003 0.7838564,0.007 1.375,0.01 1.1822876,0.005 2.8737606,0.009 4.9511716,0.0137 4.154824,0.009 9.848983,0.0156 16.080078,0.0176 l 22.685547,0.006 v -3.09766 c 0,-1.29619 -0.0027,-2.0678 -0.01367,-2.52343 -0.0055,-0.22782 -0.0132,-0.37557 -0.02344,-0.47266 -0.01023,-0.0971 -0.01918,-0.1442 -0.04687,-0.17187 -5.1e-4,-5.1e-4 -0.0055,-0.005 -0.0078,-0.006 -0.0023,-0.001 -0.0037,-0.001 -0.0059,-0.002 -0.0043,-0.002 -0.0087,-0.003 -0.01367,-0.004 -0.0099,-0.002 -0.02132,-0.004 -0.03711,-0.006 -0.03158,-0.004 -0.07707,-0.008 -0.140625,-0.0117 -0.127112,-0.007 -0.326871,-0.0125 -0.623047,-0.0176 -0.592352,-0.0102 -1.574731,-0.0161 -3.152344,-0.0215 -3.155226,-0.0108 -8.690509,-0.0135 -18.246094,-0.0137 -7.508709,-10e-5 -13.070324,-0.007 -16.783203,-0.0156 -1.856439,-0.005 -3.250468,-0.009 -4.1953122,-0.0156 -0.4724221,-0.003 -0.8329226,-0.008 -1.0820313,-0.0117 -0.1245543,-0.002 -0.2198887,-0.004 -0.2890625,-0.006 -0.069174,-0.002 -0.1136224,-0.006 -0.1230469,-0.008 -0.3808724,-0.0607 -0.8884088,-0.27959 -1.1328125,-0.48632 -0.2307298,-0.19515 -0.420572,-0.53891 -0.5507812,-1.01172 -0.053262,-0.19346 -0.080861,-0.32552 -0.097656,-0.71289 -0.016795,-0.38737 -0.022219,-1.02834 -0.029297,-2.23047 l -0.015625,-2.42774 1.0878907,2.1875 1.1445312,2.30469 h 6.2578129 c 3.048801,0 4.609449,-8e-4 5.408203,-0.0137 0.399377,-0.006 0.607218,-0.0169 0.71875,-0.0312 0.05577,-0.007 0.08688,-0.0139 0.109375,-0.0273 0.01125,-0.007 0.02041,-0.0168 0.02539,-0.0274 0.005,-0.0106 0.0059,-0.0196 0.0059,-0.0273 0,-0.002 0.0023,-0.037 0.0059,-0.0879 0.0035,-0.0509 0.0089,-0.12254 0.01563,-0.21289 0.01343,-0.1807 0.03267,-0.43393 0.05664,-0.74414 0.04795,-0.62043 0.112799,-1.46325 0.185547,-2.37696 0.07276,-0.91381 0.14062,-1.8112 0.189453,-2.51953 0.04883,-0.70832 0.07875,-1.2269 0.08008,-1.39062 l 0.0039,-0.32227 0.09375,0.48438 c 0.08009,0.4127 0.558911,2.21226 1.066406,4.00976 l 0.927735,3.28711 2.320312,-0.0137 2.320313,-0.0137 0.919922,-3.22071 c 0.503882,-1.76081 0.984138,-3.53115 1.068359,-3.94336 l 0.101563,-0.49218 0.002,0.27539 c 0.0011,0.14898 0.03263,0.66586 0.08398,1.38281 0.05135,0.71695 0.122351,1.63202 0.199219,2.57422 l 0.28125,3.45117 h 3.185547 c 1.443811,0 2.233752,-0.002 2.664062,-0.0137 0.215155,-0.006 0.340274,-0.0151 0.414063,-0.0274 0.03689,-0.006 0.06161,-0.0125 0.08008,-0.0234 0.01847,-0.0109 0.03125,-0.0313 0.03125,-0.0488 0,-7.4e-4 -0.0016,-0.005 -0.002,-0.008 -3.5e-4,-0.003 6.43e-4,-0.007 0,-0.0117 -0.0013,-0.01 -0.0034,-0.024 -0.0059,-0.041 -0.005,-0.0341 -0.01381,-0.0815 -0.02344,-0.14453 -0.01926,-0.12605 -0.04608,-0.3089 -0.08203,-0.53906 -0.07191,-0.46033 -0.175356,-1.1134 -0.298828,-1.89453 -0.246944,-1.56226 -0.57703,-3.63746 -0.908203,-5.7168 -0.331173,-2.07934 -0.663321,-4.16151 -0.916015,-5.73633 -0.126347,-0.78741 -0.232372,-1.44822 -0.308594,-1.91797 -0.03811,-0.23487 -0.07003,-0.42314 -0.0918,-0.55468 -0.01089,-0.0658 -0.01906,-0.1173 -0.02539,-0.1543 -0.0063,-0.037 -0.0095,-0.057 -0.01172,-0.0664 z m -17.234374,0.0547 h 3.169921 3.171875 l 0.07422,0.23242 c 0.148031,0.4609 0.649626,2.196 1.119141,3.85351 0.234757,0.82876 0.461085,1.63804 0.632812,2.25977 0.08586,0.31086 0.158758,0.57567 0.210938,0.77148 0.05218,0.19582 0.08401,0.32709 0.08984,0.36133 0.0181,0.10614 0.03797,0.20082 0.05664,0.27149 0.0093,0.0353 0.01905,0.0647 0.02734,0.0859 0.0041,0.0106 0.0069,0.0197 0.01172,0.0273 0.0024,0.004 0.0056,0.008 0.0098,0.0117 0.0021,0.002 0.0071,0.006 0.0078,0.006 6.69e-4,3.4e-4 0.01305,0.002 0.01367,0.002 6.2e-4,0 0.01108,-0.002 0.01172,-0.002 6.44e-4,-2.4e-4 0.0056,-0.002 0.0078,-0.004 0.0044,-0.003 0.0073,-0.006 0.0098,-0.01 0.005,-0.007 0.0082,-0.0133 0.01172,-0.0215 0.0071,-0.0164 0.01482,-0.0385 0.02148,-0.0645 0.01332,-0.0519 0.02536,-0.12192 0.03516,-0.19922 0.002,-0.0154 0.01309,-0.0603 0.0293,-0.12696 0.01621,-0.0666 0.03779,-0.15641 0.06641,-0.26562 0.05723,-0.21842 0.138452,-0.51513 0.236328,-0.8711 0.195753,-0.71192 0.460698,-1.65627 0.748047,-2.66015 l 1.039063,-3.63281 3.191406,-0.0137 3.189453,-0.0117 0.02344,0.0976 c 6.54e-4,0.003 0.0054,0.0276 0.01172,0.0645 0.0063,0.0368 0.01451,0.0886 0.02539,0.15429 0.02175,0.13144 0.05174,0.31789 0.08984,0.55274 0.07621,0.46968 0.182249,1.13057 0.308593,1.91797 0.252689,1.57478 0.584845,3.657 0.916016,5.73632 0.33117,2.07933 0.661264,4.15457 0.908203,5.7168 0.123469,0.78111 0.226928,1.43426 0.298828,1.89453 0.03595,0.23013 0.06475,0.41312 0.08398,0.53906 0.0096,0.063 0.01653,0.11067 0.02148,0.14453 0.0025,0.0169 0.0046,0.0299 0.0059,0.0391 6.19e-4,0.005 -2.86e-4,0.009 0,0.0117 0,0 0.002,0.002 0.002,0.002 0,0.002 0.002,-7e-4 -0.0059,0.004 -0.0078,0.005 -0.02661,0.0119 -0.06055,0.0176 -0.06786,0.0113 -0.191903,0.0195 -0.40625,0.0254 -0.428694,0.0117 -1.220297,0.0137 -2.664062,0.0137 h -3.136719 l -0.277344,-3.40235 c -0.07685,-0.94203 -0.147883,-1.85749 -0.199219,-2.57422 -0.05134,-0.71672 -0.08297,-1.23687 -0.08398,-1.3789 l -0.0039,-0.52344 v -0.006 l -0.05273,-0.004 v 0.004 l -0.15039,0.73633 c -0.08226,0.40261 -0.564616,2.17912 -1.06836,3.93945 l -0.910156,3.18164 -2.279297,0.0137 -2.28125,0.0137 -0.916015,-3.24805 c -0.507351,-1.79698 -0.988382,-3.60379 -1.066407,-4.00586 l -0.142578,-0.73633 v -0.006 l -0.05273,0.006 v 0.006 l -0.0059,0.57813 c -0.0013,0.15785 -0.03126,0.68058 -0.08008,1.38867 -0.04882,0.70808 -0.116708,1.60395 -0.189453,2.51758 -0.07275,0.91373 -0.137595,1.75451 -0.185547,2.375 -0.02398,0.31024 -0.0432,0.56529 -0.05664,0.74609 -0.0067,0.0904 -0.01208,0.16378 -0.01563,0.21484 -0.0035,0.0511 -0.0059,0.0782 -0.0059,0.0899 0,0.005 1.07e-4,0.006 0,0.006 -1.06e-4,2.2e-4 -0.0013,0.001 -0.0059,0.004 -0.0092,0.005 -0.03488,0.0127 -0.08789,0.0195 -0.106027,0.0137 -0.316009,0.0248 -0.714843,0.0312 -0.79767,0.0129 -2.357456,0.0137 -5.40625,0.0137 H 8.5800781 l -1.1289062,-2.27539 -1.1367188,-2.28711 -0.050781,0.0117 0.015625,2.53907 c 0.00708,1.20217 0.012413,1.84301 0.029297,2.23242 0.016884,0.38941 0.045939,0.52967 0.099609,0.72461 0.1319268,0.47905 0.3231789,0.83335 0.5664063,1.03906 0.2576397,0.21793 0.7672293,0.43539 1.1601562,0.49805 0.019744,0.003 0.059257,0.006 0.1289063,0.008 0.069649,0.002 0.1663128,0.004 0.2910156,0.006 0.2494056,0.004 0.6095258,0.008 1.0820313,0.0117 0.9450112,0.007 2.3388292,0.013 4.1953122,0.0176 3.712967,0.009 9.274473,0.0136 16.783203,0.0137 9.555575,1.8e-4 15.09105,0.003 18.246094,0.0137 1.577522,0.005 2.560554,0.0113 3.152344,0.0215 0.295895,0.005 0.493276,0.0111 0.61914,0.0176 0.06293,0.003 0.109335,0.006 0.138672,0.01 0.01467,0.002 0.02465,0.004 0.03125,0.006 9.9e-4,2.3e-4 0.0012,-2.2e-4 0.002,0 0.0042,0.004 0.02133,0.0426 0.03125,0.13672 0.0099,0.0941 0.01798,0.24349 0.02344,0.4707 0.01091,0.45443 0.01367,1.22537 0.01367,2.52148 v 3.04493 l -22.632813,-0.006 c -6.231069,-0.002 -11.925302,-0.009 -16.080078,-0.0176 -2.077388,-0.004 -3.768962,-0.008 -4.9511716,-0.0137 -0.5911047,-0.003 -1.0547448,-0.007 -1.375,-0.01 -0.1601276,-0.001 -0.284633,-0.002 -0.3710938,-0.004 -0.04323,-7.1e-4 -0.077605,-0.001 -0.1015625,-0.002 -0.023957,-7e-4 -0.040316,-0.002 -0.039063,-0.002 -0.00219,-3.4e-4 -0.00752,3.4e-4 -0.00977,0 -0.1504289,-0.0226 -0.4370441,-0.0424 -0.6503906,-0.0449 -1.0571137,-0.0125 -2.8065359,-0.81788 -3.9882813,-1.8418 -1.3869626,-1.20172 -2.42808946,-3.18413 -2.56640622,-4.88477 -0.006147,-0.0756 -0.01268727,-0.41034 -0.01953126,-0.9414 -0.006844,-0.53106 -0.01507405,-1.26222 -0.02148437,-2.13867 -0.01282064,-1.75291 -0.02286841,-4.09026 -0.02929688,-6.58985 -0.01038656,-4.04131 -0.01377066,-6.31687 -0.0058594,-7.58984 0.0039556,-0.63649 0.01120043,-1.02116 0.02148437,-1.25195 0.005142,-0.1154 0.01082279,-0.19336 0.01757813,-0.24219 0.0067553,-0.0488 0.01768782,-0.0685 0.015625,-0.0664 0.0025608,-0.003 0.01567367,-0.0111 0.04492188,-0.0176 0.0292482,-0.006 0.0743947,-0.0125 0.140625,-0.0176 0.13246055,-0.0102 0.35007681,-0.0175 0.703125,-0.0215 0.70609632,-0.008 1.95435362,-0.004 4.16015622,0.006 4.1488675,0.0188 5.0640504,0.0359 5.4316404,0.10156 1.200363,0.21405 1.842533,0.49831 2.394532,1.0586 0.202022,0.20505 0.450085,0.51471 0.546874,0.67968 0.620105,1.05693 0.96989,2.95689 0.796876,4.33594 -0.212741,1.69566 -1.110819,3.00996 -2.496094,3.65821 l -0.365235,0.16992 1.734375,2.52343 c 0.471787,0.68695 0.904786,1.31235 1.222657,1.76758 0.158935,0.22762 0.289109,0.41245 0.380859,0.54102 0.04588,0.0643 0.08182,0.11586 0.107422,0.15039 0.0128,0.0173 0.0218,0.0296 0.0293,0.0391 0.0038,0.005 0.007,0.009 0.0098,0.0117 0.0014,0.002 0.0023,0.002 0.0039,0.004 8.15e-4,7.7e-4 0.0036,0.004 0.0039,0.004 2.56e-4,2e-4 0.0076,0.004 0.0078,0.004 8.2e-5,3e-5 0.02529,-0.004 0.02539,-0.004 9.8e-5,-7e-5 0.0057,-0.008 0.0059,-0.008 2.28e-4,-3.5e-4 0.0033,-0.004 0.0039,-0.006 0.0013,-0.003 9.96e-4,-0.006 0.002,-0.01 0.0019,-0.007 0.0051,-0.0166 0.0078,-0.0293 0.0054,-0.0255 0.01232,-0.064 0.02149,-0.11328 0.01832,-0.0987 0.04389,-0.24396 0.07617,-0.43164 0.06457,-0.37537 0.155085,-0.91854 0.265624,-1.58985 0.22108,-1.3426 0.520722,-3.19562 0.845704,-5.23633 0.324974,-2.04067 0.624592,-3.90883 0.84375,-5.27539 0.109578,-0.68327 0.198434,-1.24177 0.261718,-1.63281 0.03164,-0.19552 0.05663,-0.35006 0.07422,-0.45703 0.0088,-0.0535 0.01652,-0.0956 0.02148,-0.125 0.005,-0.0294 0.0077,-0.0484 0.0078,-0.0488 z m -11.1699224,4.64257 v 1.47071 1.46875 l 0.5957032,-0.0293 c 0.1571979,-0.008 0.3184428,-0.0232 0.4511718,-0.041 0.1327291,-0.0178 0.2357121,-0.036 0.2871094,-0.0586 0.2994709,-0.13166 0.5983712,-0.37329 0.7167969,-0.58398 0.065705,-0.1169 0.1430095,-0.3703 0.1777343,-0.57422 0.088201,-0.518 -0.029788,-0.92555 -0.3613281,-1.24414 -0.1476381,-0.14186 -0.2747309,-0.23178 -0.4570312,-0.28711 -0.1823004,-0.0553 -0.4176957,-0.0779 -0.7871094,-0.0937 z m 0.052734,0.0566 0.5683594,0.0234 c 0.3681864,0.0158 0.5994722,0.039 0.7734375,0.0918 0.1739653,0.0528 0.2908462,0.1344 0.4355469,0.27344 0.3199004,0.3074 0.4318539,0.69326 0.3457031,1.19922 -0.033715,0.19799 -0.1138585,0.45342 -0.171875,0.55664 -0.107865,0.1919 -0.4021106,0.43336 -0.6914063,0.56054 -0.035902,0.0158 -0.1424465,0.039 -0.2734375,0.0566 -0.130991,0.0176 -0.2896865,0.0314 -0.4453125,0.0391 L 6.3125,278.78516 v -1.41211 z"
       style="color:#000000;font-style:normal;font-variant:normal;font-weight:normal;font-stretch:normal;font-size:medium;line-height:normal;font-family:sans-serif;font-variant-ligatures:normal;font-variant-position:normal;font-variant-caps:normal;font-variant-numeric:normal;font-variant-alternates:normal;font-feature-settings:normal;text-indent:0;text-align:start;text-decoration:none;text-decoration-line:none;text-decoration-style:solid;text-decoration-color:#000000;letter-spacing:normal;word-spacing:normal;text-transform:none;writing-mode:lr-tb;direction:ltr;text-orientation:mixed;dominant-baseline:auto;baseline-shift:baseline;text-anchor:start;white-space:normal;shape-padding:0;clip-rule:nonzero;display:inline;overflow:visible;visibility:visible;opacity:1;isolation:auto;mix-blend-mode:normal;color-interpolation:sRGB;color-interpolation-filters:linearRGB;solid-color:#000000;solid-opacity:1;vector-effect:none;fill-opacity:1;fill-rule:nonzero;stroke:none;stroke-width:0.05290947;stroke-linecap:butt;stroke-linejoin:miter;stroke-miterlimit:4;stroke-dasharray:none;stroke-dashoffset:0;stroke-opacity:1;color-rendering:auto;image-rendering:auto;shape-rendering:auto;text-rendering:auto;enable-background:accumulate;fill:#ffffff" />
  </g>
</svg>
